<svg width="106" height="30" viewBox="0 0 106 30" fill="none" xmlns="http://www.w3.org/2000/svg">
<path d="M40.018 21.0002H32.62V8.14824H40.018V10.3802H35.338V13.2062H39.694V15.4382H35.338V18.7502H40.018V21.0002ZM41.6123 17.2742V15.0782H46.3283V17.2742H41.6123ZM50.959 10.1102C50.959 10.5902 50.941 11.0522 50.905 11.4962C50.881 11.9402 50.857 12.2522 50.833 12.4322H50.977C51.289 11.9282 51.691 11.5622 52.183 11.3342C52.675 11.1062 53.221 10.9922 53.821 10.9922C54.889 10.9922 55.741 11.2802 56.377 11.8562C57.025 12.4202 57.349 13.3322 57.349 14.5922V21.0002H54.667V15.2582C54.667 13.8422 54.139 13.1342 53.083 13.1342C52.279 13.1342 51.721 13.4162 51.409 13.9802C51.109 14.5322 50.959 15.3302 50.959 16.3742V21.0002H48.277V7.32024H50.959V10.1102ZM64.1571 10.9922C65.5131 10.9922 66.5871 11.3822 67.3791 12.1622C68.1711 12.9302 68.5671 14.0282 68.5671 15.4562V16.7522H62.2311C62.2551 17.5082 62.4771 18.1022 62.8971 18.5342C63.3291 18.9662 63.9231 19.1822 64.6791 19.1822C65.3151 19.1822 65.8911 19.1222 66.4071 19.0022C66.9231 18.8702 67.4571 18.6722 68.0091 18.4082V20.4782C67.5291 20.7182 67.0191 20.8922 66.4791 21.0002C65.9511 21.1202 65.3091 21.1802 64.5531 21.1802C63.5691 21.1802 62.6991 21.0002 61.9431 20.6402C61.1871 20.2682 60.5931 19.7102 60.1611 18.9662C59.7291 18.2222 59.5131 17.2862 59.5131 16.1582C59.5131 15.0062 59.7051 14.0522 60.0891 13.2962C60.4851 12.5282 61.0311 11.9522 61.7271 11.5682C62.4231 11.1842 63.2331 10.9922 64.1571 10.9922ZM64.1751 12.9002C63.6591 12.9002 63.2271 13.0682 62.8791 13.4042C62.5431 13.7402 62.3451 14.2622 62.2851 14.9702H66.0471C66.0351 14.3702 65.8791 13.8782 65.5791 13.4942C65.2791 13.0982 64.8111 12.9002 64.1751 12.9002ZM74.7739 10.9742C76.0939 10.9742 77.1019 11.2622 77.7979 11.8382C78.5059 12.4022 78.8599 13.2722 78.8599 14.4482V21.0002H76.9879L76.4659 19.6682H76.3939C75.9739 20.1962 75.5299 20.5802 75.0619 20.8202C74.5939 21.0602 73.9519 21.1802 73.1359 21.1802C72.2599 21.1802 71.5339 20.9282 70.9579 20.4242C70.3819 19.9082 70.0939 19.1222 70.0939 18.0662C70.0939 17.0222 70.4599 16.2542 71.1919 15.7622C71.9239 15.2582 73.0219 14.9822 74.4859 14.9342L76.1959 14.8802V14.4482C76.1959 13.9322 76.0579 13.5542 75.7819 13.3142C75.5179 13.0742 75.1459 12.9542 74.6659 12.9542C74.1859 12.9542 73.7179 13.0262 73.2619 13.1702C72.8059 13.3022 72.3499 13.4702 71.8939 13.6742L71.0119 11.8562C71.5399 11.5802 72.1219 11.3642 72.7579 11.2082C73.4059 11.0522 74.0779 10.9742 74.7739 10.9742ZM75.1519 16.4822C74.2879 16.5062 73.6879 16.6622 73.3519 16.9502C73.0159 17.2382 72.8479 17.6162 72.8479 18.0842C72.8479 18.4922 72.9679 18.7862 73.2079 18.9662C73.4479 19.1342 73.7599 19.2182 74.1439 19.2182C74.7199 19.2182 75.2059 19.0502 75.6019 18.7142C75.9979 18.3662 76.1959 17.8802 76.1959 17.2562V16.4462L75.1519 16.4822ZM84.2872 21.0002H81.6052V7.32024H84.2872V21.0002ZM91.2295 19.0382C91.5295 19.0382 91.8175 19.0082 92.0935 18.9482C92.3695 18.8882 92.6455 18.8162 92.9215 18.7322V20.7302C92.6335 20.8502 92.2735 20.9522 91.8415 21.0362C91.4215 21.1322 90.9595 21.1802 90.4555 21.1802C89.8675 21.1802 89.3395 21.0842 88.8715 20.8922C88.4155 20.7002 88.0495 20.3702 87.7735 19.9022C87.5095 19.4222 87.3775 18.7622 87.3775 17.9222V13.1882H86.0995V12.0542L87.5755 11.1542L88.3495 9.08424H90.0595V11.1722H92.8135V13.1882H90.0595V17.9222C90.0595 18.2942 90.1675 18.5762 90.3835 18.7682C90.5995 18.9482 90.8815 19.0382 91.2295 19.0382ZM97.5762 10.1102C97.5762 10.5902 97.5582 11.0522 97.5222 11.4962C97.4982 11.9402 97.4742 12.2522 97.4502 12.4322H97.5942C97.9062 11.9282 98.3082 11.5622 98.8002 11.3342C99.2922 11.1062 99.8382 10.9922 100.438 10.9922C101.506 10.9922 102.358 11.2802 102.994 11.8562C103.642 12.4202 103.966 13.3322 103.966 14.5922V21.0002H101.284V15.2582C101.284 13.8422 100.756 13.1342 99.7002 13.1342C98.8962 13.1342 98.3382 13.4162 98.0262 13.9802C97.7262 14.5322 97.5762 15.3302 97.5762 16.3742V21.0002H94.8942V7.32024H97.5762V10.1102Z" fill="url(#paint0_linear)"/>
<path d="M1.22743 11.1006C3.32589 5.82943 8.73131 0.76876 15.1048 0.038197C19.4418 -0.360061 17.7288 5.10901 17.7288 5.10901C10.6513 3.63013 1.16174 16.4847 8.06446 17.4309C4.10181 21.0064 -1.9717 19.1381 1.22743 11.1006Z" fill="url(#paint1_linear)"/>
<path opacity="0.25" d="M17.7287 5.10908C17.7287 5.10908 18.6224 3.54649 18.5443 2.26801C16.5425 1.86087 8.06562 2.06634 3.71625 12.0203C2.53253 14.7282 2.60566 18.5471 5.18876 19.0481C6.15309 18.7983 7.15212 18.2541 8.06562 17.431C1.26453 16.5381 10.4157 3.74182 17.7287 5.10908Z" fill="url(#paint2_linear)"/>
<path opacity="0.71" d="M0.720274 12.9943C-0.587389 19.5605 4.42759 20.7134 8.0655 17.4309C7.49781 17.3599 7.03424 17.2013 6.66488 16.9756C6.05505 17.3421 -0.332054 18.7005 0.720274 12.9943Z" fill="url(#paint3_linear)"/>
<path opacity="0.71" d="M15.4344 0.0204584C18.3163 1.10869 16.6677 4.29476 16.1645 4.93781C16.6826 4.94034 17.2057 4.99488 17.7287 5.10903C17.7287 5.10903 19.3525 -0.0746669 15.4344 0.0204584Z" fill="url(#paint4_linear)"/>
<path d="M11.8397 4.81343C6.65742 4.71323 2.57578 13.962 11.5497 10.6998C7.94278 10.7493 8.27992 7.14591 11.8397 4.81343Z" fill="url(#paint5_linear)"/>
<path opacity="0.25" d="M11.8176 4.83008C8.15494 6.01851 5.81726 11.2973 9.99682 11.1756C10.4641 11.064 10.981 10.908 11.5499 10.6999C7.95042 10.7494 8.27888 7.16255 11.8176 4.83008Z" fill="url(#paint6_linear)"/>
<path opacity="0.71" d="M6.34535 9.10046C5.91153 10.9155 7.18821 12.2853 11.55 10.6998C10.8596 10.71 10.3142 10.5844 9.90765 10.3612C9.6362 10.6719 6.56722 11.8451 6.34535 9.10046Z" fill="url(#paint7_linear)"/>
<path d="M6.63885 23.3984C13.5391 18.1373 19.5333 18.273 13.0495 24.3547C13.8688 22.7972 10.2297 21.78 6.63885 23.3984Z" fill="url(#paint8_linear)"/>
<path opacity="0.28" d="M6.63885 23.3985C10.7193 20.5498 16.8448 19.4679 13.0557 24.3497C19.5296 18.2744 13.5379 18.1387 6.63885 23.3985Z" fill="url(#paint9_linear)"/>
<path d="M6.38481 8.95082C5.53204 12.0012 7.01447 16.8462 14.3262 13.0425C22.409 8.83794 21.5983 -0.677136 15.1046 0.0382063C19.8544 -0.117799 17.5229 5.67978 15.0228 7.89429C12.0319 10.5451 5.75639 13.2543 6.38481 8.95082Z" fill="url(#paint10_linear)"/>
<path opacity="0.28" d="M13.4648 11.6384C19.6474 8.57153 21.6789 -0.280199 15.1046 0.0381541C19.8544 -0.117851 17.5229 5.67972 15.0228 7.89424C12.0307 10.5451 5.75639 13.2542 6.38482 8.95076C6.14312 9.81323 6.08982 10.8203 6.30053 11.7348C7.32187 13.1439 9.47363 13.6182 13.4648 11.6384Z" fill="url(#paint11_linear)"/>
<g opacity="0.28">
<path opacity="0.28" d="M6.30054 11.7348C6.57446 12.1052 6.93392 12.4083 7.34047 12.6087C7.74702 12.8129 8.19448 12.9156 8.64441 12.9461C9.548 13.0107 10.4479 12.8103 11.3031 12.5212C12.1596 12.2256 12.9888 11.8413 13.7821 11.3987C14.5717 10.9497 15.3079 10.4018 15.9723 9.77648C16.6391 9.15246 17.2316 8.446 17.7299 7.67612C18.2257 6.90497 18.6248 6.06406 18.8752 5.17622C19.1194 4.29219 19.2123 3.34094 18.9843 2.44422C18.8715 1.99904 18.6707 1.57414 18.3819 1.21774C18.0943 0.860068 17.7224 0.577228 17.3134 0.376831C17.7274 0.56835 18.1067 0.843579 18.4042 1.19871C18.7029 1.55258 18.9161 1.97874 19.0413 2.429C19.2867 3.33713 19.2024 4.30487 18.9657 5.20286C18.7252 6.10591 18.3211 6.95697 17.8241 7.73953C17.3233 8.52083 16.7271 9.23744 16.0553 9.87034C15.3835 10.5032 14.6361 11.0512 13.8366 11.5014C13.4363 11.7272 13.026 11.9276 12.6095 12.1166C12.1931 12.3043 11.7679 12.4755 11.3329 12.6163C10.4665 12.8966 9.55296 13.0868 8.63822 13.0095C8.18332 12.9689 7.73091 12.8535 7.3256 12.6366C6.92028 12.4248 6.56703 12.1115 6.30054 11.7348Z" fill="url(#paint12_linear)"/>
</g>
<path d="M1.22737 11.1006C-2.01514 18.9085 1.24845 25.5875 10.0526 20.2478C17.6928 15.6133 18.8505 18.4836 17.6147 20.8719C15.8447 24.2938 10.0228 28.4147 6.65015 30.0001C12.0221 28.6912 20.8337 24.2012 22.6644 18.1158C24.36 12.4818 19.3091 11.1006 14.4689 13.6436C10.7244 15.6121 -2.78734 23.647 1.22737 11.1006Z" fill="url(#paint13_linear)"/>
<path opacity="0.28" d="M14.47 13.6436C10.7243 15.6121 -2.7874 23.6685 1.22731 11.1006C0.822001 12.0759 0.518326 13.0348 0.31381 13.9543C-1.6607 25.8425 9.8046 18.8654 13.1748 16.6978C18.9322 12.9929 22.1041 15.3343 20.1816 19.6124C18.2939 23.8131 13.0446 27.556 6.65133 30.0001C12.0233 28.6912 20.8348 24.2012 22.6656 18.1158C24.3599 12.4818 19.3103 11.1006 14.47 13.6436Z" fill="url(#paint14_linear)"/>
<g opacity="0.28">
<path opacity="0.28" d="M6.65152 30.0002C8.5244 29.2684 10.3514 28.4084 12.0966 27.4014C12.3172 27.2784 12.528 27.1414 12.7449 27.0133C12.9581 26.8801 13.1787 26.7571 13.3869 26.6137C13.8071 26.3347 14.231 26.062 14.6363 25.7602C15.0516 25.4722 15.442 25.1526 15.8386 24.8406C16.037 24.6833 16.2216 24.5108 16.4138 24.3472L16.7001 24.0986C16.7943 24.0137 16.8823 23.9236 16.974 23.8361C17.7152 23.1486 18.387 22.3826 18.9807 21.562C19.2857 21.1561 19.5435 20.7172 19.7938 20.2759L20.1347 19.5935L20.281 19.2422C20.3281 19.1242 20.3665 19.0037 20.4099 18.8845C20.5673 18.4025 20.6801 17.9015 20.6863 17.3955C20.69 16.8932 20.6008 16.377 20.333 15.9559L20.2847 15.876C20.2673 15.8506 20.2475 15.8265 20.2277 15.8024C20.188 15.7542 20.1533 15.7035 20.1112 15.6591L19.9798 15.5297C19.9376 15.4841 19.8843 15.4524 19.8372 15.4131C19.7443 15.3319 19.6315 15.2799 19.5274 15.2152C19.4133 15.1683 19.3055 15.1074 19.1865 15.0769C18.7192 14.9235 18.216 14.8918 17.7227 14.9374C17.2281 14.9806 16.7397 15.0922 16.265 15.2456C15.7903 15.4004 15.3242 15.5843 14.8743 15.8062C14.6475 15.9128 14.4269 16.0333 14.205 16.15C13.9881 16.2768 13.765 16.3935 13.553 16.5292C13.1241 16.7892 12.7015 17.0695 12.2689 17.3308C11.4075 17.8584 10.5311 18.3619 9.63374 18.8223C8.73635 19.2828 7.81789 19.7038 6.87091 20.0488C5.92394 20.3887 4.94475 20.664 3.9358 20.7325C3.43381 20.7629 2.92314 20.7388 2.4323 20.6069C2.18812 20.5397 1.95014 20.4471 1.72579 20.3253C1.50392 20.1985 1.2994 20.0425 1.11844 19.8598C0.756505 19.4933 0.513565 19.024 0.352431 18.537C0.197495 18.0461 0.120646 17.5324 0.0908986 17.02C0.0599113 16.5064 0.0760247 15.9927 0.115688 15.4803C0.157831 14.9691 0.229722 14.4605 0.312767 13.9545C0.23468 14.4618 0.168987 14.9704 0.130562 15.4815C0.0958565 15.9927 0.0859406 16.5064 0.121886 17.0175C0.157831 17.5274 0.238398 18.036 0.397053 18.5218C0.561905 19.0025 0.806085 19.4603 1.16306 19.8155C1.34155 19.9918 1.5411 20.144 1.75801 20.267C1.9774 20.3862 2.21043 20.475 2.45089 20.5409C2.93305 20.6678 3.43628 20.6906 3.93332 20.6589C4.92987 20.5879 5.90411 20.3114 6.84489 19.9689C7.7869 19.6227 8.7004 19.2003 9.59408 18.7374C10.4877 18.2744 11.3604 17.7696 12.2181 17.2407C12.6482 16.9769 13.0671 16.6979 13.4997 16.4341C13.7129 16.2971 13.936 16.1779 14.1542 16.0498C14.3773 15.9318 14.5991 15.8088 14.8284 15.701C15.2809 15.4752 15.7531 15.2888 16.2328 15.1302C16.7137 14.9729 17.2095 14.8563 17.7152 14.8119C18.2197 14.7662 18.7378 14.8004 19.2262 14.9615C19.3501 14.9945 19.4641 15.0592 19.5831 15.1087C19.6934 15.1771 19.81 15.233 19.9091 15.3179C19.9587 15.3598 20.0157 15.3928 20.0603 15.441L20.1992 15.5792C20.2438 15.6274 20.281 15.6807 20.3219 15.7314C20.3417 15.758 20.3628 15.7821 20.3814 15.81L20.4322 15.8938C20.7135 16.3402 20.804 16.8793 20.7978 17.3967C20.7892 17.918 20.6714 18.4292 20.5103 18.9187C20.4657 19.0392 20.426 19.1623 20.3776 19.2815L20.2277 19.6366L19.8806 20.3241C19.6265 20.768 19.3637 21.2094 19.0564 21.6178C18.4552 22.4435 17.7772 23.2095 17.031 23.8982C16.9393 23.9858 16.8488 24.0758 16.7546 24.1608L16.4671 24.4094C16.2737 24.573 16.0865 24.7455 15.8882 24.9028C15.4891 25.2148 15.0949 25.5344 14.6785 25.821C13.8604 26.4172 13.0002 26.9486 12.1276 27.4559C10.3675 28.4465 8.53183 29.2874 6.65152 30.0002Z" fill="url(#paint15_linear)"/>
</g>
<defs>
<linearGradient id="paint0_linear" x1="31" y1="27.0002" x2="99.2862" y2="-10.2931" gradientUnits="userSpaceOnUse">
<stop stop-color="#2A7FCE"/>
<stop offset="1" stop-color="#10D8D8"/>
</linearGradient>
<linearGradient id="paint1_linear" x1="2.66644" y1="17.2733" x2="16.5953" y2="0.315652" gradientUnits="userSpaceOnUse">
<stop offset="0.00842396" stop-color="#FFE366"/>
<stop offset="1" stop-color="#FFB360"/>
</linearGradient>
<linearGradient id="paint2_linear" x1="4.41557" y1="17.0509" x2="20.2878" y2="-4.26354" gradientUnits="userSpaceOnUse">
<stop offset="0.00308494" stop-color="#FFE367"/>
<stop offset="0.00842396" stop-color="#FFE367"/>
<stop offset="1" stop-color="#FFC076"/>
</linearGradient>
<linearGradient id="paint3_linear" x1="-0.36971" y1="14.7526" x2="6.43107" y2="18.0234" gradientUnits="userSpaceOnUse">
<stop stop-color="#FFE367"/>
<stop offset="1" stop-color="#FFC076"/>
</linearGradient>
<linearGradient id="paint4_linear" x1="16.5803" y1="5.68014" x2="16.8153" y2="0.118934" gradientUnits="userSpaceOnUse">
<stop stop-color="#FFEC97"/>
<stop offset="1" stop-color="#FFBC6C"/>
</linearGradient>
<linearGradient id="paint5_linear" x1="10.7036" y1="5.16284" x2="7.14408" y2="11.3249" gradientUnits="userSpaceOnUse">
<stop offset="0.00308494" stop-color="#FFEB91"/>
<stop offset="1" stop-color="#FFE366"/>
</linearGradient>
<linearGradient id="paint6_linear" x1="9.79401" y1="4.83008" x2="9.79401" y2="11.1776" gradientUnits="userSpaceOnUse">
<stop stop-color="#FFD524"/>
<stop offset="1" stop-color="#FF981E"/>
</linearGradient>
<linearGradient id="paint7_linear" x1="6.60784" y1="9.87854" x2="11.6475" y2="11.7408" gradientUnits="userSpaceOnUse">
<stop stop-color="#FFE367"/>
<stop offset="1" stop-color="#FFC176"/>
</linearGradient>
<linearGradient id="paint8_linear" x1="8.77411" y1="24.8435" x2="17.8278" y2="17.0396" gradientUnits="userSpaceOnUse">
<stop stop-color="#2985CF"/>
<stop offset="0.9985" stop-color="#2BFFE8"/>
</linearGradient>
<linearGradient id="paint9_linear" x1="8.77404" y1="24.8435" x2="17.8276" y2="17.0397" gradientUnits="userSpaceOnUse">
<stop stop-color="#2985CF"/>
<stop offset="0.9985" stop-color="#2BFFE8"/>
</linearGradient>
<linearGradient id="paint10_linear" x1="3.89616" y1="16.8247" x2="17.3623" y2="4.96988" gradientUnits="userSpaceOnUse">
<stop stop-color="#278BD0"/>
<stop offset="0.9985" stop-color="#2BFFE8"/>
</linearGradient>
<linearGradient id="paint11_linear" x1="5.33845" y1="14.3713" x2="18.1554" y2="3.08802" gradientUnits="userSpaceOnUse">
<stop stop-color="#6266FF"/>
<stop offset="0.4962" stop-color="#46B4F3"/>
<stop offset="0.9985" stop-color="#2BFFE8"/>
</linearGradient>
<linearGradient id="paint12_linear" x1="7.68312" y1="13.4205" x2="19.8232" y2="2.73315" gradientUnits="userSpaceOnUse">
<stop stop-color="#6266FF"/>
<stop offset="0.4962" stop-color="#46B4F3"/>
<stop offset="0.9985" stop-color="#2BFFE8"/>
</linearGradient>
<linearGradient id="paint13_linear" x1="3.22045" y1="22.969" x2="17.9754" y2="10.5091" gradientUnits="userSpaceOnUse">
<stop stop-color="#2986CF"/>
<stop offset="0.9985" stop-color="#2BFFE8"/>
</linearGradient>
<linearGradient id="paint14_linear" x1="2.20142" y1="24.7582" x2="18.0175" y2="10.5354" gradientUnits="userSpaceOnUse">
<stop stop-color="#6266FF"/>
<stop offset="0.4962" stop-color="#46B4F3"/>
<stop offset="0.9985" stop-color="#2BFFE8"/>
</linearGradient>
<linearGradient id="paint15_linear" x1="2.76052" y1="23.9065" x2="16.8242" y2="11.8329" gradientUnits="userSpaceOnUse">
<stop stop-color="#2986CF"/>
<stop offset="0.9985" stop-color="#2BFFE8"/>
</linearGradient>
</defs>
</svg>
